<svg width="722" height="360" viewBox="0 0 722 360" fill="none" xmlns="http://www.w3.org/2000/svg">
<g clip-path="url(#clip0_15_177)">
<path d="M250.06 189.579V282.897L117.547 344.558C109.022 348.527 101.255 350.606 93.7723 350.606C82.6902 350.606 72.3184 346.023 61.2362 336.431L8.6668 290.032C-5.35169 277.7 -2.03651 263.241 15.9602 257.997L180.583 209.849H180.63L184.561 208.715L188.445 207.581L192.375 206.447L196.259 205.313L250.06 189.579Z" fill="#232323"/>
<path d="M250.06 134.722V182.208L248.023 182.775L190.434 199.643L186.456 200.777L182.619 201.911H182.572L47.2651 70.7938C29.5525 53.5004 27.4214 32.7579 32.9151 14.992L54.9848 -55.8351C58.2526 -66.1828 64.0305 -71.522 70.6135 -71.522C75.681 -71.522 81.2694 -68.3563 86.6211 -61.9776L250.06 134.722Z" fill="#232323"/>
<path d="M464.268 426.3L436.61 475.865C431.637 484.748 425.196 489 418.661 489C412.409 489 406.063 485.078 400.853 477.566L272.035 291.402L269.241 287.339V287.291L266.399 283.228H311.154C329.009 283.228 344.874 278.078 357.851 269.053C358.845 268.439 359.84 267.73 360.787 266.974C361.734 266.265 362.681 265.509 363.581 264.753L392.755 297.639V297.686L396.496 301.892L400.285 306.144L404.026 310.349L404.074 310.397L407.768 314.602H407.815L458.253 371.396C473.409 387.791 476.345 403.998 464.268 426.3Z" fill="#232323"/>
<path d="M715.843 258.564L664.363 321.5C652.476 336.006 639.831 343.046 622.45 343.046C618.329 343.046 613.925 342.668 609.236 341.865L411.509 308.081L405.589 301.419L403.932 299.576L368.885 260.076L368.791 259.934C376.747 252.043 383.046 242.404 387.403 231.537L392.897 229.458L408.999 223.363L703.151 231.442C721.953 231.915 727.636 244.153 715.843 258.564Z" fill="#232323"/>
<path d="M390.86 219.298H391.333C391.38 219.156 391.427 218.968 391.427 218.827L390.86 219.298Z" fill="#232323"/>
<path d="M662.137 119.744L407.815 216.228L399.385 219.535H399.148L390.387 222.843C390.718 221.662 391.05 220.48 391.334 219.299C391.381 219.157 391.429 218.968 391.429 218.827L395.123 215.897L397.917 213.629L598.107 52.6971L602.227 49.3897L603.979 47.9722L666.163 89.0321C681.934 99.5687 679.944 113.035 662.137 119.744Z" fill="#232323"/>
<path d="M391.427 218.827C391.427 218.968 391.38 219.156 391.333 219.298H390.86L391.427 218.827Z" fill="#232323"/>
<path d="M648.308 3.22675L603.601 39.231L600.712 41.5462L600.664 41.5934L597.775 43.9087L591.903 48.6336L393.465 208.101C393.702 206.447 393.844 204.794 393.986 203.14C394.128 201.533 394.223 199.974 394.27 198.368V198.32C394.318 196.903 394.365 195.485 394.365 194.021C394.365 174.885 389.44 157.402 380.631 143.086C380.015 142.093 379.352 141.101 378.736 140.156V140.109C378.026 139.117 377.363 138.172 376.652 137.227C375.942 136.282 375.232 135.337 374.427 134.392C373.716 133.447 372.911 132.502 372.059 131.604C370.875 130.186 369.596 128.863 368.27 127.588L369.264 124.942L375.09 109.255L614.02 -143.767C619.229 -149.248 624.676 -151.941 629.601 -151.941C636.752 -151.941 642.814 -146.318 645.467 -135.687L666.636 -50.7795C672.225 -27.202 667.584 -12.2239 648.308 3.22675Z" fill="#232323"/>
<path d="M341.18 -50.1178L330.524 106.987C329.387 106.704 328.203 106.467 327.019 106.278C325.883 106.042 324.699 105.853 323.467 105.711C319.489 105.097 315.369 104.814 311.154 104.814H250.06L228.321 -112.771C226.995 -126.048 232.868 -133.986 242.529 -133.986C246.223 -133.986 250.438 -132.805 255.032 -130.348L314.564 -97.8871L317.831 -96.0917H317.879L321.147 -94.2962C322.283 -93.6819 323.373 -92.9732 324.367 -92.3117C325.504 -91.5557 326.546 -90.7525 327.54 -89.902C338.528 -80.6883 342.222 -66.8914 341.18 -50.1178Z" fill="#232323"/>
<path d="M435.047 -72.7977L368.886 105.475L365.76 113.933L362.587 122.485C361.639 121.729 360.74 121.02 359.745 120.311C358.798 119.603 357.803 118.894 356.809 118.28C350.936 114.358 344.448 111.192 337.533 108.971L337.628 107.46L348.284 -49.6454C349.61 -71.6637 343.169 -87.7758 329.009 -97.6983L329.056 -98.029L325.03 -100.202C324.888 -100.344 324.746 -100.391 324.604 -100.486H324.557L322.52 -101.62L335.45 -169.848C337.533 -180.999 343.643 -187 351.173 -187C355.909 -187 361.213 -184.638 366.47 -179.724L422.023 -127.655C438.978 -111.731 443.098 -94.5325 435.047 -72.7977Z" fill="#232323"/>
</g>
<defs>
<clipPath id="clip0_15_177">
<rect width="722" height="676" fill="white" transform="translate(0 -187)"/>
</clipPath>
</defs>
</svg>
