<svg width="162" height="28" viewBox="0 0 162 28" fill="none" xmlns="http://www.w3.org/2000/svg">
<g clip-path="url(#clip0_6_54)">
<path d="M10.3302 15.598V19.4632L4.85601 22.0172C4.50385 22.1816 4.18299 22.2677 3.87387 22.2677C3.41607 22.2677 2.9876 22.0779 2.52979 21.6806L0.358134 19.7587C-0.220976 19.2479 -0.0840242 18.6491 0.659427 18.4318L7.46005 16.4375H7.46201L7.62439 16.3906L7.78482 16.3436L7.9472 16.2966L8.10763 16.2497L10.3302 15.598Z" fill="#151519"/>
<path d="M10.3301 13.3258V15.2927L10.2459 15.3161L7.86688 16.0148L7.70254 16.0618L7.54407 16.1088H7.54211L1.95253 10.6779C1.22082 9.96156 1.13278 9.1024 1.35973 8.36653L2.27143 5.43287C2.40643 5.00426 2.64511 4.78311 2.91706 4.78311C3.1264 4.78311 3.35726 4.91424 3.57834 5.17844L10.3301 13.3258Z" fill="#151519"/>
<path d="M19.1792 25.4029L18.0366 27.4559C17.8312 27.8239 17.5651 28 17.2951 28C17.0369 28 16.7747 27.8376 16.5595 27.5264L11.2379 19.8155L11.1225 19.6472V19.6452L11.0051 19.4769H12.854C13.5916 19.4769 14.247 19.2636 14.783 18.8898C14.8241 18.8643 14.8652 18.835 14.9043 18.8037C14.9435 18.7743 14.9826 18.743 15.0198 18.7117L16.2249 20.0738V20.0758L16.3795 20.2499L16.536 20.4261L16.6906 20.6003L16.6925 20.6022L16.8451 20.7764H16.8471L18.9307 23.1288C19.5568 23.8079 19.6781 24.4792 19.1792 25.4029Z" fill="#151519"/>
<path d="M29.5717 18.4553L27.4451 21.0621C26.954 21.663 26.4316 21.9546 25.7136 21.9546C25.5434 21.9546 25.3615 21.9389 25.1678 21.9056L16.9996 20.5063L16.755 20.2304L16.6865 20.154L15.2388 18.5179L15.2349 18.5121C15.5635 18.1852 15.8238 17.786 16.0037 17.3358L16.2307 17.2497L16.8959 16.9973L29.0474 17.3319C29.8241 17.3515 30.0589 17.8584 29.5717 18.4553Z" fill="#151519"/>
<path d="M16.1465 16.829H16.166C16.168 16.8231 16.17 16.8153 16.17 16.8094L16.1465 16.829Z" fill="#151519"/>
<path d="M27.3531 12.7054L16.8469 16.7018L16.4987 16.8388H16.4889L16.127 16.9757C16.1406 16.9268 16.1543 16.8779 16.1661 16.829C16.168 16.8231 16.17 16.8153 16.17 16.8094L16.3226 16.6881L16.438 16.5941L24.7079 9.92829L24.8782 9.79129L24.9505 9.73258L27.5194 11.4333C28.1709 11.8697 28.0887 12.4275 27.3531 12.7054Z" fill="#151519"/>
<path d="M16.17 16.8094C16.17 16.8153 16.168 16.8231 16.166 16.829H16.1465L16.17 16.8094Z" fill="#151519"/>
<path d="M26.7819 7.87922L24.935 9.37052L24.8156 9.46641L24.8137 9.46837L24.6943 9.56427L24.4517 9.75998L16.2542 16.3651C16.264 16.2966 16.2699 16.2281 16.2757 16.1596C16.2816 16.0931 16.2855 16.0285 16.2875 15.962V15.96C16.2894 15.9013 16.2914 15.8426 16.2914 15.7819C16.2914 14.9893 16.0879 14.2652 15.724 13.6722C15.6986 13.6311 15.6712 13.59 15.6458 13.5508V13.5489C15.6164 13.5078 15.589 13.4687 15.5597 13.4295C15.5303 13.3904 15.501 13.3512 15.4677 13.3121C15.4384 13.2729 15.4051 13.2338 15.3699 13.1966C15.321 13.1379 15.2682 13.0831 15.2134 13.0303L15.2545 12.9207L15.4951 12.2709L25.3654 1.79073C25.5806 1.56371 25.8056 1.45216 26.0091 1.45216C26.3045 1.45216 26.5549 1.68505 26.6645 2.12539L27.539 5.64227C27.7699 6.61886 27.5781 7.23925 26.7819 7.87922Z" fill="#151519"/>
<path d="M14.0942 5.66967L13.654 12.177C13.6071 12.1652 13.5582 12.1554 13.5092 12.1476C13.4623 12.1378 13.4134 12.13 13.3625 12.1241C13.1982 12.0987 13.028 12.087 12.8538 12.087H10.33L9.432 3.07458C9.37722 2.52464 9.61982 2.19585 10.0189 2.19585C10.1715 2.19585 10.3457 2.24478 10.5354 2.34654L12.9947 3.69106L13.1297 3.76543H13.1316L13.2666 3.8398C13.3136 3.86524 13.3586 3.8946 13.3997 3.922C13.4466 3.95331 13.4897 3.98658 13.5308 4.02181C13.9847 4.40344 14.1373 4.97491 14.0942 5.66967Z" fill="#151519"/>
<path d="M17.972 4.73027L15.2389 12.1143L15.1097 12.4647L14.9786 12.8189C14.9395 12.7876 14.9023 12.7582 14.8613 12.7289C14.8221 12.6995 14.781 12.6702 14.74 12.6447C14.4974 12.4823 14.2293 12.3512 13.9437 12.2592L13.9476 12.1965L14.3878 5.68924C14.4426 4.77724 14.1765 4.10988 13.5915 3.69889L13.5935 3.68519L13.4272 3.59516C13.4213 3.58929 13.4154 3.58733 13.4096 3.58342H13.4076L13.3235 3.53645L13.8576 0.710421C13.9437 0.24855 14.1961 0 14.5071 0C14.7028 0 14.9219 0.0978542 15.1391 0.301391L17.434 2.4581C18.1344 3.11763 18.3046 3.83001 17.972 4.73027Z" fill="#151519"/>
<path d="M13.4076 3.58342L13.3235 3.53841V3.53645L13.4076 3.58342Z" fill="#151519"/>
<path d="M13.5933 3.68519L13.5913 3.69889C13.5405 3.6617 13.4857 3.62648 13.427 3.59516L13.5933 3.68519Z" fill="#151519"/>
<path d="M13.427 3.59516C13.4857 3.62648 13.5405 3.6617 13.5913 3.69889L13.5933 3.68519L13.427 3.59516Z" fill="#151519"/>
<path d="M13.3235 3.53645V3.53841L13.4076 3.58342L13.3235 3.53645Z" fill="#151519"/>
</g>
<path d="M42.4434 23H39.3965V6.03125H42.4434V23ZM44.4574 6.03125H57.9809V8.58594H52.7543V23H49.7074V8.58594H44.4574V6.03125ZM59.9715 6.03125H66.3465C67.6199 6.03125 68.702 6.25781 69.5926 6.71094C70.491 7.15625 71.1707 7.78516 71.6316 8.59766C72.0926 9.41016 72.323 10.3594 72.323 11.4453C72.323 12.6016 72.0613 13.5938 71.5379 14.4219C71.0223 15.25 70.2645 15.8672 69.2645 16.2734L72.9324 23H69.534L66.2059 16.7891H63.0184V23H59.9715V6.03125ZM65.8777 14.2344C68.0965 14.2344 69.2059 13.3047 69.2059 11.4453C69.2059 10.5234 68.9324 9.81641 68.3855 9.32422C67.8387 8.83203 67.0027 8.58594 65.8777 8.58594H63.0184V14.2344H65.8777ZM85.9855 11.75C85.8684 11.0859 85.6223 10.5117 85.2473 10.0273C84.8723 9.54297 84.3957 9.17578 83.8176 8.92578C83.2473 8.66797 82.6184 8.53906 81.9309 8.53906C80.9934 8.53906 80.1691 8.77344 79.4582 9.24219C78.7473 9.70312 78.1926 10.3828 77.7941 11.2812C77.3957 12.1797 77.1965 13.2578 77.1965 14.5156C77.1965 15.7812 77.3957 16.8633 77.7941 17.7617C78.1926 18.6602 78.7473 19.3398 79.4582 19.8008C80.177 20.2617 81.0012 20.4922 81.9309 20.4922C82.6027 20.4922 83.2199 20.3711 83.7824 20.1289C84.3527 19.8789 84.8293 19.5195 85.2121 19.0508C85.5949 18.582 85.8527 18.0234 85.9855 17.375H89.0559C88.8996 18.4688 88.5051 19.4609 87.8723 20.3516C87.2473 21.2422 86.4191 21.9453 85.3879 22.4609C84.3566 22.9766 83.1887 23.2344 81.884 23.2344C80.3918 23.2344 79.0559 22.8867 77.8762 22.1914C76.7043 21.4883 75.7863 20.4805 75.1223 19.168C74.4582 17.8477 74.1262 16.2969 74.1262 14.5156C74.1262 12.7266 74.4582 11.1758 75.1223 9.86328C75.7941 8.55078 76.716 7.54687 77.8879 6.85156C79.0676 6.14844 80.3996 5.79688 81.884 5.79688C83.134 5.79688 84.2707 6.03516 85.2941 6.51172C86.3176 6.98047 87.1574 7.66406 87.8137 8.5625C88.4699 9.45312 88.884 10.5156 89.0559 11.75H85.9855ZM98.8512 15.7578H91.2105V13.2969H98.8512V15.7578ZM101.521 6.03125H104.568V13.8359H104.803L111.436 6.03125H115.162L108.6 13.6484L115.232 23H111.553L106.467 15.7109L104.568 17.9375V23H101.521V6.03125ZM125.848 10.6953C125.778 9.97656 125.454 9.41406 124.875 9.00781C124.305 8.60156 123.559 8.39844 122.637 8.39844C122.012 8.39844 121.465 8.49219 120.996 8.67969C120.528 8.86719 120.168 9.12891 119.918 9.46484C119.668 9.80078 119.543 10.1797 119.543 10.6016C119.543 11.25 119.813 11.7539 120.352 12.1133C120.891 12.4648 121.59 12.7422 122.45 12.9453L124.043 13.3672C125.504 13.7031 126.696 14.2617 127.618 15.043C128.547 15.8164 129.012 16.8828 129.012 18.2422C129.012 19.2344 128.758 20.1094 128.25 20.8672C127.743 21.625 127.004 22.2148 126.036 22.6367C125.075 23.0508 123.926 23.2578 122.59 23.2578C121.27 23.2578 120.125 23.0547 119.157 22.6484C118.188 22.2344 117.43 21.6367 116.883 20.8555C116.344 20.0664 116.051 19.1172 116.004 18.0078H119.004C119.075 18.8672 119.434 19.5234 120.082 19.9766C120.739 20.4297 121.567 20.6562 122.567 20.6562C123.231 20.6562 123.821 20.5547 124.336 20.3516C124.852 20.1484 125.25 19.8633 125.532 19.4961C125.821 19.1211 125.965 18.6953 125.965 18.2188C125.965 17.6016 125.707 17.1211 125.192 16.7773C124.684 16.4258 123.918 16.1172 122.895 15.8516L120.973 15.3594C117.957 14.5703 116.45 13.0469 116.45 10.7891C116.45 9.80469 116.719 8.9375 117.258 8.1875C117.797 7.42969 118.539 6.84375 119.485 6.42969C120.438 6.00781 121.504 5.79688 122.684 5.79688C123.871 5.79688 124.922 6.00781 125.836 6.42969C126.758 6.84375 127.473 7.42188 127.981 8.16406C128.496 8.90625 128.762 9.75 128.778 10.6953H125.848ZM131.143 6.03125H137.518C138.792 6.03125 139.874 6.25781 140.764 6.71094C141.663 7.15625 142.343 7.78516 142.804 8.59766C143.264 9.41016 143.495 10.3594 143.495 11.4453C143.495 12.6016 143.233 13.5938 142.71 14.4219C142.194 15.25 141.436 15.8672 140.436 16.2734L144.104 23H140.706L137.378 16.7891H134.19V23H131.143V6.03125ZM137.05 14.2344C139.268 14.2344 140.378 13.3047 140.378 11.4453C140.378 10.5234 140.104 9.81641 139.557 9.32422C139.011 8.83203 138.175 8.58594 137.05 8.58594H134.19V14.2344H137.05ZM157.157 11.75C157.04 11.0859 156.794 10.5117 156.419 10.0273C156.044 9.54297 155.568 9.17578 154.989 8.92578C154.419 8.66797 153.79 8.53906 153.103 8.53906C152.165 8.53906 151.341 8.77344 150.63 9.24219C149.919 9.70312 149.364 10.3828 148.966 11.2812C148.568 12.1797 148.368 13.2578 148.368 14.5156C148.368 15.7812 148.568 16.8633 148.966 17.7617C149.364 18.6602 149.919 19.3398 150.63 19.8008C151.349 20.2617 152.173 20.4922 153.103 20.4922C153.775 20.4922 154.392 20.3711 154.954 20.1289C155.525 19.8789 156.001 19.5195 156.384 19.0508C156.767 18.582 157.025 18.0234 157.157 17.375H160.228C160.071 18.4688 159.677 19.4609 159.044 20.3516C158.419 21.2422 157.591 21.9453 156.56 22.4609C155.529 22.9766 154.361 23.2344 153.056 23.2344C151.564 23.2344 150.228 22.8867 149.048 22.1914C147.876 21.4883 146.958 20.4805 146.294 19.168C145.63 17.8477 145.298 16.2969 145.298 14.5156C145.298 12.7266 145.63 11.1758 146.294 9.86328C146.966 8.55078 147.888 7.54687 149.06 6.85156C150.239 6.14844 151.571 5.79688 153.056 5.79688C154.306 5.79688 155.443 6.03516 156.466 6.51172C157.489 6.98047 158.329 7.66406 158.986 8.5625C159.642 9.45312 160.056 10.5156 160.228 11.75H157.157Z" fill="black"/>
<defs>
<clipPath id="clip0_6_54">
<rect width="29.8261" height="28" fill="white"/>
</clipPath>
</defs>
</svg>
