<svg viewBox="0 0 162 28" fill="none" xmlns="http://www.w3.org/2000/svg">
<g clip-path="url(#clip0_5_248)">
<path d="M10.3302 15.598V19.4632L4.85601 22.0172C4.50385 22.1816 4.18299 22.2677 3.87387 22.2677C3.41607 22.2677 2.9876 22.0779 2.52979 21.6806L0.358134 19.7587C-0.220976 19.2479 -0.0840242 18.6491 0.659427 18.4318L7.46005 16.4376H7.46201L7.62439 16.3906L7.78482 16.3436L7.9472 16.2966L8.10763 16.2497L10.3302 15.598Z" fill="#151519"/>
<path d="M10.3301 13.3258V15.2927L10.2459 15.3161L7.86688 16.0148L7.70254 16.0618L7.54407 16.1088H7.54211L1.95253 10.6778C1.22082 9.96156 1.13278 9.1024 1.35973 8.36653L2.27143 5.43286C2.40643 5.00426 2.64511 4.78311 2.91706 4.78311C3.1264 4.78311 3.35726 4.91424 3.57834 5.17844L10.3301 13.3258Z" fill="#151519"/>
<path d="M19.1792 25.4029L18.0366 27.4559C17.8312 27.8239 17.5651 28 17.2951 28C17.0369 28 16.7747 27.8376 16.5595 27.5264L11.2379 19.8155L11.1225 19.6472V19.6452L11.0051 19.4769H12.854C13.5916 19.4769 14.247 19.2636 14.783 18.8898C14.8241 18.8643 14.8652 18.835 14.9043 18.8037C14.9435 18.7743 14.9826 18.743 15.0198 18.7117L16.2249 20.0738V20.0758L16.3795 20.2499L16.536 20.4261L16.6906 20.6003L16.6925 20.6022L16.8451 20.7764H16.8471L18.9307 23.1288C19.5568 23.8079 19.6781 24.4792 19.1792 25.4029Z" fill="#151519"/>
<path d="M29.5717 18.4553L27.4451 21.0621C26.954 21.663 26.4316 21.9546 25.7136 21.9546C25.5434 21.9546 25.3615 21.9389 25.1678 21.9057L16.9996 20.5063L16.755 20.2304L16.6865 20.1541L15.2388 18.5179L15.2349 18.5121C15.5635 18.1852 15.8238 17.786 16.0037 17.3359L16.2307 17.2497L16.8959 16.9973L29.0474 17.3319C29.8241 17.3515 30.0589 17.8584 29.5717 18.4553Z" fill="#151519"/>
<path d="M16.1465 16.829H16.166C16.168 16.8231 16.17 16.8153 16.17 16.8094L16.1465 16.829Z" fill="#151519"/>
<path d="M27.3531 12.7054L16.8469 16.7017L16.4987 16.8387H16.4889L16.127 16.9757C16.1406 16.9268 16.1543 16.8779 16.1661 16.829C16.168 16.8231 16.17 16.8153 16.17 16.8094L16.3226 16.6881L16.438 16.5941L24.7079 9.92828L24.8782 9.79129L24.9505 9.73257L27.5194 11.4333C28.1709 11.8697 28.0887 12.4275 27.3531 12.7054Z" fill="#151519"/>
<path d="M16.17 16.8094C16.17 16.8153 16.168 16.8231 16.166 16.829H16.1465L16.17 16.8094Z" fill="#151519"/>
<path d="M26.7819 7.87921L24.935 9.37051L24.8156 9.46641L24.8137 9.46836L24.6943 9.56426L24.4517 9.75997L16.2542 16.3651C16.264 16.2966 16.2699 16.2281 16.2757 16.1596C16.2816 16.0931 16.2855 16.0285 16.2875 15.962V15.96C16.2894 15.9013 16.2914 15.8426 16.2914 15.7819C16.2914 14.9893 16.0879 14.2652 15.724 13.6722C15.6986 13.6311 15.6712 13.59 15.6458 13.5508V13.5489C15.6164 13.5078 15.589 13.4686 15.5597 13.4295C15.5303 13.3904 15.501 13.3512 15.4677 13.3121C15.4384 13.2729 15.4051 13.2338 15.3699 13.1966C15.321 13.1379 15.2682 13.0831 15.2134 13.0303L15.2545 12.9207L15.4951 12.2709L25.3654 1.79072C25.5806 1.5637 25.8056 1.45215 26.0091 1.45215C26.3045 1.45215 26.5549 1.68504 26.6645 2.12539L27.539 5.64227C27.7699 6.61885 27.5781 7.23924 26.7819 7.87921Z" fill="#151519"/>
<path d="M14.0942 5.66969L13.654 12.177C13.6071 12.1652 13.5582 12.1555 13.5092 12.1476C13.4623 12.1378 13.4134 12.13 13.3625 12.1241C13.1982 12.0987 13.028 12.087 12.8538 12.087H10.33L9.432 3.07459C9.37722 2.52465 9.61982 2.19586 10.0189 2.19586C10.1715 2.19586 10.3457 2.24479 10.5354 2.34656L12.9947 3.69107L13.1297 3.76544H13.1316L13.2666 3.83981C13.3136 3.86525 13.3586 3.89461 13.3997 3.92201C13.4466 3.95332 13.4897 3.98659 13.5308 4.02182C13.9847 4.40345 14.1373 4.97492 14.0942 5.66969Z" fill="#151519"/>
<path d="M17.972 4.73027L15.2389 12.1143L15.1097 12.4647L14.9786 12.8189C14.9395 12.7876 14.9023 12.7582 14.8613 12.7289C14.8221 12.6995 14.781 12.6702 14.74 12.6447C14.4974 12.4823 14.2293 12.3512 13.9437 12.2592L13.9476 12.1965L14.3878 5.68924C14.4426 4.77724 14.1765 4.10988 13.5915 3.69889L13.5935 3.68519L13.4272 3.59516C13.4213 3.58929 13.4154 3.58733 13.4096 3.58342H13.4076L13.3235 3.53645L13.8576 0.710421C13.9437 0.24855 14.1961 0 14.5071 0C14.7028 0 14.9219 0.0978542 15.1391 0.301391L17.434 2.4581C18.1344 3.11763 18.3046 3.83001 17.972 4.73027Z" fill="#151519"/>
<path d="M13.4076 3.58341L13.3235 3.5384V3.53644L13.4076 3.58341Z" fill="#151519"/>
<path d="M13.5933 3.68518L13.5913 3.69888C13.5405 3.66169 13.4857 3.62647 13.427 3.59515L13.5933 3.68518Z" fill="#151519"/>
<path d="M13.427 3.59515C13.4857 3.62647 13.5405 3.66169 13.5913 3.69888L13.5933 3.68518L13.427 3.59515Z" fill="#151519"/>
<path d="M13.3235 3.53644V3.5384L13.4076 3.58341L13.3235 3.53644Z" fill="#151519"/>
</g>
<path d="M42.4434 6.03125V23H39.3965V6.03125H42.4434ZM44.4574 8.58594V6.03125H57.9809V8.58594H52.7543V23H49.7074V8.58594H44.4574ZM59.9715 23V6.03125H66.3465C70.2371 6.03125 72.3113 8.21094 72.323 11.4453C72.3113 13.7539 71.2566 15.4648 69.2645 16.2734L72.9324 23H69.534L66.2059 16.7891H63.0184V23H59.9715ZM63.0184 14.2344H65.8777C68.1746 14.2461 69.2059 13.2617 69.2059 11.4453C69.2059 9.64062 68.1746 8.58594 65.8777 8.58594H63.0184V14.2344ZM85.9855 11.75C85.6223 9.71094 83.9934 8.53906 81.9309 8.53906C79.1535 8.53906 77.1848 10.6719 77.1965 14.5156C77.1848 18.418 79.1652 20.4922 81.9309 20.4922C83.9465 20.4922 85.5754 19.3672 85.9855 17.375H89.0559C88.5871 20.6328 85.9035 23.2344 81.884 23.2344C77.4074 23.2344 74.1145 19.9883 74.1262 14.5156C74.1145 9.03125 77.4426 5.79688 81.884 5.79688C85.634 5.79688 88.5285 7.97656 89.0559 11.75H85.9855ZM98.8512 13.2969V15.7578H91.2105V13.2969H98.8512ZM101.521 23V6.03125H104.568V13.8359H104.803L111.436 6.03125H115.162L108.6 13.6484L115.232 23H111.553L106.467 15.7109L104.568 17.9375V23H101.521ZM125.848 10.6953C125.696 9.23047 124.465 8.38672 122.637 8.39844C120.704 8.38672 119.555 9.32422 119.543 10.6016C119.532 12.0312 121.043 12.6172 122.45 12.9453L124.043 13.3672C126.575 13.9531 129.012 15.2891 129.012 18.2422C129.012 21.2188 126.657 23.2578 122.59 23.2578C118.641 23.2578 116.133 21.3594 116.004 18.0078H119.004C119.145 19.7773 120.633 20.6445 122.567 20.6562C124.571 20.6445 125.954 19.6719 125.965 18.2188C125.954 16.8828 124.735 16.3203 122.895 15.8516L120.973 15.3594C118.184 14.6328 116.45 13.2266 116.45 10.7891C116.45 7.78906 119.11 5.79688 122.684 5.79688C126.282 5.79688 128.731 7.82422 128.778 10.6953H125.848ZM142.581 11.75C142.218 9.71094 140.589 8.53906 138.526 8.53906C135.749 8.53906 133.78 10.6719 133.792 14.5156C133.78 18.418 135.761 20.4922 138.526 20.4922C140.542 20.4922 142.171 19.3672 142.581 17.375H145.651C145.182 20.6328 142.499 23.2344 138.479 23.2344C134.003 23.2344 130.71 19.9883 130.721 14.5156C130.71 9.03125 134.038 5.79688 138.479 5.79688C142.229 5.79688 145.124 7.97656 145.651 11.75H142.581ZM157.111 10.6953C156.958 9.23047 155.728 8.38672 153.9 8.39844C151.966 8.38672 150.818 9.32422 150.806 10.6016C150.794 12.0312 152.306 12.6172 153.712 12.9453L155.306 13.3672C157.837 13.9531 160.275 15.2891 160.275 18.2422C160.275 21.2188 157.919 23.2578 153.853 23.2578C149.904 23.2578 147.396 21.3594 147.267 18.0078H150.267C150.407 19.7773 151.896 20.6445 153.829 20.6562C155.833 20.6445 157.216 19.6719 157.228 18.2188C157.216 16.8828 155.997 16.3203 154.157 15.8516L152.236 15.3594C149.446 14.6328 147.712 13.2266 147.712 10.7891C147.712 7.78906 150.372 5.79688 153.946 5.79688C157.544 5.79688 159.993 7.82422 160.04 10.6953H157.111Z" fill="black"/>
<defs>
<clipPath id="clip0_5_248">
<rect width="29.8261" height="28" fill="white"/>
</clipPath>
</defs>
</svg>
